<?xml version="1.0" encoding="utf-8"?>
<!-- Generator: Adobe Illustrator 22.1.0, SVG Export Plug-In . SVG Version: 6.00 Build 0)  -->
<svg version="1.1" id="Layer_1" xmlns="http://www.w3.org/2000/svg" xmlns:xlink="http://www.w3.org/1999/xlink" x="0px" y="0px"
	 viewBox="0 0 661.8 59.3" style="enable-background:new 0 0 661.8 59.3;" xml:space="preserve">
<style type="text/css">
	.st0{display:none;}
	.st1{display:inline;fill:#06378E;}
	.st2{fill:#06378E;}
	.st3{font-family:'Montserrat-Bold';}
	.st4{font-size:52px;}
	.st5{enable-background:new    ;}
	.st6{font-family:'NanumBarunGothicOTFBold-KSCpc-EUC-H';}
	.st7{font-size:48px;}
	.st8{fill:none;}
</style>
<g class="st0">
	<path class="st1" d="M89.4,51.6V4.9h18c3.9,0,13.9,0.4,20.7,7.1c3,3,6.3,8.3,6.3,16.9c0,4.8-0.9,11.1-6,16.2
		c-2.8,2.9-8.3,6.6-16.7,6.6L89.4,51.6L89.4,51.6z M106.2,37.3h1.3c2,0,4.8-0.1,7.2-2.2c1.6-1.4,2.7-3.8,2.7-6.7c0-3-1.2-5.5-2.7-7
		c-2-1.9-4.7-2.2-6.7-2.2h-1.8V37.3z"/>
	<path class="st1" d="M141.5,51.6V4.9H173v12.8h-14.5V22h13.2v12.3h-13.2v4.5h15v12.8H141.5z"/>
	<path class="st1" d="M180.7,51.6V4.9h31.2v13.3h-14.2V23h12.5v12.3h-12.5v16.3H180.7z"/>
	<path class="st1" d="M230.5,45.8l-1.3,5.8h-17.9l16.2-46.7h18.8L263,51.6h-18l-1.5-5.8H230.5z M237.4,20.5h-0.6
		c-0.1,2-0.4,3.6-0.8,5.3l-2.3,9h6.8l-2.2-9C237.9,23.9,237.6,22.2,237.4,20.5z"/>
	<path class="st1" d="M265.7,51.6l7.6-46.7h17.4l5.5,19.1c0.7,2.5,1,4.8,1.1,5.4h0.4c0.1-2,0.4-3.4,0.9-5.4l5.5-19.1h17.3l7.6,46.7
		h-16.3l-2.1-20.9c-0.1-1.6-0.3-2.7-0.3-4.6H310c-0.2,1.2-0.6,3-0.9,3.9l-6.9,21.6h-9.9L286,31.2c-0.5-1.7-0.8-3.1-0.9-5.1h-0.5
		c0,0.9,0,2.7-0.1,3.6l-2.3,21.9H265.7z"/>
	<path class="st1" d="M336.4,51.6V4.9h16.9v46.7C353.3,51.6,336.4,51.6,336.4,51.6z"/>
	<path class="st1" d="M362.7,51.6V4.9h16.9v31.6H394v15.1H362.7z"/>
	<path class="st1" d="M399.6,51.6V4.9h16.9v46.7C416.5,51.6,399.6,51.6,399.6,51.6z"/>
	<path class="st1" d="M440.4,45.8l-1.3,5.8h-17.9l16.2-46.7h18.8l16.7,46.7h-18l-1.5-5.8H440.4z M447.3,20.5h-0.6
		c-0.1,2-0.4,3.6-0.8,5.3l-2.3,9h6.8l-2.2-9C447.8,23.9,447.5,22.2,447.3,20.5z"/>
	<path class="st1" d="M477.5,51.6V4.9h21.1c4.9,0,10,0.6,14.3,4.8c2.4,2.4,4.4,6,4.4,11.5c0,4.1-1.3,6.7-2.6,8.3
		c-1.4,1.8-3.7,3.2-6.4,3.7v0.4c0.9,0.5,1.8,1.2,2.4,2.2l10.5,15.8h-19.5L495,37.9c-0.2-0.5-0.4-0.7-0.6-1.5l-0.3,0.1v15L477.5,51.6
		L477.5,51.6z M494.1,25.7h2c1,0,2.5-0.1,3.6-1c0.6-0.5,1.2-1.4,1.2-2.9c0-1-0.3-2.1-0.9-2.8c-0.6-0.6-1.5-1.3-2.9-1.3h-2.9v8
		C494.2,25.7,494.1,25.7,494.1,25.7z"/>
	<path class="st1" d="M527.3,51.6V4.9h16.9v46.7C544.2,51.6,527.3,51.6,527.3,51.6z"/>
	<path class="st1" d="M553.9,4.9h43.5l-17.7,28.8c-0.7,1.2-1.7,2.5-2.6,3.4l0.1,0.3l3.2-0.3h14.8v14.4h-45.4l17.3-27.9
		c1.1-1.8,1.9-3.1,3.7-5l-0.1-0.3c-0.8,0.3-2.3,0.7-3.4,0.7h-13.4L553.9,4.9L553.9,4.9z"/>
	<path class="st1" d="M617.5,45.8l-1.3,5.8h-17.9l16.2-46.7h18.8L650,51.6h-18l-1.5-5.8H617.5z M624.3,20.5h-0.6
		c-0.1,2-0.4,3.6-0.8,5.3l-2.3,9h6.8l-2.2-9C624.8,23.9,624.5,22.2,624.3,20.5z"/>
	<path class="st1" d="M657.8,51.6V19.7l-9.5,0.4V4.9H684v15.2l-9.5-0.4v31.9H657.8z"/>
	<path class="st1" d="M689.2,51.6V4.9h16.9v46.7C706.1,51.6,689.2,51.6,689.2,51.6z"/>
	<path class="st1" d="M758.7,45.2c-4,4.1-10.5,7.5-19.4,7.5s-15.4-3.4-19.4-7.5c-3.6-3.7-6.5-9.5-6.5-16.9s2.9-13.2,6.5-16.9
		c4-4.1,10.5-7.5,19.4-7.5s15.4,3.4,19.4,7.5c3.6,3.7,6.5,9.5,6.5,16.9S762.3,41.4,758.7,45.2z M733.2,21.3c-1.7,1.8-2.7,4.5-2.7,7
		c0,2.7,1,5.3,2.7,6.9c1.4,1.4,3.5,2.4,6.1,2.4s4.7-1,6.1-2.4c1.5-1.5,2.7-4,2.7-6.9s-1-5.4-2.7-7c-1.3-1.3-3.3-2.4-6.1-2.4
		C736.3,18.9,734.3,20.1,733.2,21.3z"/>
	<path class="st1" d="M772.5,51.6V4.9h16.2l10.9,17.6c1.8,2.8,2.9,4.6,4.4,8.3h0.5c-0.7-2.9-1.5-7.6-1.5-11.1V4.9h16.2v46.7H803
		l-11.6-18.4c-1-1.7-2.3-4.1-3.2-6.1h-0.5c0.5,2.5,1,6.5,1,8.6v15.9C788.7,51.6,772.5,51.6,772.5,51.6z"/>
	<path class="st1" d="M826.6,19.4c0.6-4.2,2.5-7.8,5-10.4c2.9-2.9,7.5-5.2,14.3-5.2c6.9,0,11.3,2.5,13.9,4.9
		c1.9,1.9,4.3,5.2,4.3,10.4c0,4.3-1.4,8-3.7,10.4c-3.9,4.1-10.2,4.5-14.1,4.5c-2.3,0-4.1-0.1-6.1-0.6V22.9c1,0.4,2,0.6,3.4,0.6
		c1.1,0,2.7-0.2,3.8-1.3c0.8-0.8,1.4-1.9,1.4-3.7c0-0.9-0.1-1.8-0.9-2.6c-0.6-0.6-1.3-0.8-2-0.8c-1.4,0-2.1,0.7-2.4,1
		c-0.7,0.8-0.9,2.2-0.9,3.3C842.6,19.4,826.6,19.4,826.6,19.4z M852.5,49.8c-1.8,1.8-4.6,2.7-7.1,2.7c-2.4,0-5.2-0.8-7-2.7
		c-1.4-1.4-2.2-3.4-2.2-5.2c0-1.7,0.8-3.7,2.2-5.1c1.8-1.8,4.6-2.7,7-2.7c2.5,0,5.3,0.8,7.1,2.7c1.4,1.4,2.2,3.4,2.2,5.1
		C854.6,46.3,853.9,48.4,852.5,49.8z"/>
</g>
<text transform="matrix(0.9 0 0 1 2 46.2004)" class="st2 st3 st4">SMART SIGNAGE</text>
<text transform="matrix(0.9 0 0 1 406.3799 44.2004)" class="st5"><tspan x="0" y="0" class="st2 st6 st4"> </tspan><tspan x="11.6" y="0" class="st2 st6 st7">기반시설 구축</tspan></text>
<text transform="matrix(0.9 0 0 1 851.3398 44.2004)" class="st6 st4" style="fill:#C62128;"> </text>
<rect x="528" y="25.6" class="st8" width="12" height="3"/>
</svg>
