<?xml version="1.0" encoding="utf-8"?>
<!-- Generator: Adobe Illustrator 22.1.0, SVG Export Plug-In . SVG Version: 6.00 Build 0)  -->
<svg version="1.1" id="Layer_1" xmlns="http://www.w3.org/2000/svg" xmlns:xlink="http://www.w3.org/1999/xlink" x="0px" y="0px"
	 viewBox="0 0 855.5 59.3" style="enable-background:new 0 0 855.5 59.3;" xml:space="preserve">
<style type="text/css">
	.st0{display:none;}
	.st1{display:inline;fill:#06378E;}
	.st2{fill:#06378E;}
	.st3{font-family:'Montserrat-Bold';}
	.st4{font-size:52px;}
	.st5{enable-background:new    ;}
	.st6{font-family:'NanumBarunGothicOTFBold-KSCpc-EUC-H';}
	.st7{font-size:48px;}
</style>
<g class="st0">
	<path class="st1" d="M-16.5,53.6V7H5.9c7.4,0,11.7,3,13.7,4.9c3.9,3.8,4.8,8.5,4.8,12.3c0,3.9-0.8,8.3-4.6,11.7
		c-3.7,3.4-7.9,3.8-11.5,3.8H0v14.1h-16.5V53.6z M0,27.8h2.9c0.8,0,2.6-0.1,3.8-1.3c0.6-0.6,1.1-1.5,1.1-2.9c0-1.5-0.6-2.4-1.3-2.9
		c-0.8-0.6-2.2-1.1-3.4-1.1H0V27.8z"/>
	<path class="st1" d="M30.2,53.6V7h16.9v31.6h14.3v15.1L30.2,53.6L30.2,53.6z"/>
	<path class="st1" d="M81.6,47.8l-1.3,5.8H62.4L78.6,6.9h18.8L114,53.6H96l-1.5-5.8H81.6z M88.5,22.6h-0.6c-0.1,2-0.4,3.6-0.8,5.3
		l-2.3,9h6.8l-2.2-9C88.9,26,88.7,24.2,88.5,22.6z"/>
	<path class="st1" d="M108.3,7h19.2l4,8.5c0.3,0.6,0.8,2,1.3,3.7h0.5c0.4-2,0.8-2.7,1.3-3.7l3.6-8.5h19.1l-16,26.6v20.1h-16.7V33.6
		L108.3,7z"/>
	<path class="st1" d="M173,7h17.6l5.1,22.1c0.3,1.6,0.8,3,0.8,5.7h0.4c0.1-2.9,0.6-5.4,1.2-7.8l5.1-20h13l5.4,21.3
		c0.4,1.7,0.8,4.8,1,6.6h0.3c0.1-3,0.5-5,1.1-7.5L228.8,7h17.6L230,53.6h-14.8l-4.4-19c-0.4-1.9-0.8-4.1-0.9-6.4h-0.6
		c-0.1,1.5-0.4,4.9-0.7,6.4l-4.8,19h-14.4L173,7z"/>
	<path class="st1" d="M251.1,53.6V7H268v46.7h-16.9V53.6z"/>
	<path class="st1" d="M282.8,53.6V21.7l-9.5,0.4V7H309v15.2l-9.5-0.4v31.9h-16.7V53.6z"/>
	<path class="st1" d="M314.1,53.6V7h16.3v15.8h10.4V7h16.3v46.7h-16.3V37.4h-10.4v16.2C330.4,53.6,314.1,53.6,314.1,53.6z"/>
	<path class="st1" d="M388.1,53.6V21.7l-9.5,0.4V7h35.7v15.2l-9.5-0.4v31.9h-16.7V53.6z"/>
	<path class="st1" d="M419.5,53.6V7h16.3v15.8h10.4V7h16.3v46.7h-16.3V37.4h-10.4v16.2C435.8,53.6,419.5,53.6,419.5,53.6z"/>
	<path class="st1" d="M471.8,53.6V7h31.5v12.8h-14.6v4.3H502v12.3h-13.2v4.5h15v12.8L471.8,53.6L471.8,53.6z"/>
	<path class="st1" d="M509.2,53.6l7.6-46.7h17.4l5.5,19.1c0.7,2.5,1,4.8,1,5.4h0.4c0.1-2,0.4-3.4,0.9-5.4l5.5-19.1h17.3l7.6,46.7
		h-16.3L554,32.7c-0.1-1.6-0.3-2.7-0.3-4.6h-0.3c-0.2,1.2-0.6,3-0.9,3.9l-6.9,21.6h-9.9l-6.2-20.4c-0.5-1.7-0.8-3.1-0.9-5.1H528
		c0,0.9,0,2.7-0.1,3.6l-2.3,21.9C525.6,53.6,509.2,53.6,509.2,53.6z"/>
</g>
<text transform="matrix(1 0 0 1 1 46.2001)" class="st2 st3 st4">SMART SIGNAGE PLATFORM</text>
<text transform="matrix(1 0 0 1 756.5 46.2001)" class="st5"><tspan x="0" y="0" class="st2 st6 st4"> </tspan><tspan x="11.6" y="0" class="st2 st6 st7">개발 </tspan></text>
</svg>
