<?xml version="1.0" encoding="utf-8"?>
<!-- Generator: Adobe Illustrator 21.1.0, SVG Export Plug-In . SVG Version: 6.00 Build 0)  -->
<svg version="1.1" id="Layer_1" xmlns="http://www.w3.org/2000/svg" xmlns:xlink="http://www.w3.org/1999/xlink" x="0px" y="0px"
	 viewBox="0 0 1200 200" style="enable-background:new 0 0 1200 200;" xml:space="preserve">
<style type="text/css">
	.st0{fill:#FFFFFF;}
</style>
<g>
	<path class="st0" d="M41.5,182.8c-10.3-10.3-10.3-27.1,0-37.4L170.9,16c10.3-10.3,27.1-10.3,37.4,0c10.3,10.3,10.3,27.1,0,37.4
		L78.9,182.8C68.6,193.1,51.8,193.1,41.5,182.8z"/>
	<path class="st0" d="M170.9,182.8L41.5,53.4C31.2,43,31.2,26.3,41.5,16s27.1-10.3,37.4,0l129.4,129.4c10.3,10.3,10.3,27.1,0,37.4
		S181.3,193.1,170.9,182.8z"/>
	<path class="st0" d="M238.4,118.1c-4.8-4.8-7.7-11.4-7.7-18.7c0-14.6,11.8-26.4,26.4-26.4l884.1,0c14.6,0,26.4,11.8,26.4,26.4
		c0,14.6-11.8,26.4-26.4,26.4l-884.1,0C249.8,125.8,243.2,122.9,238.4,118.1z"/>
</g>
</svg>
