<?xml version="1.0" encoding="utf-8"?>
<!-- Generator: Adobe Illustrator 22.0.1, SVG Export Plug-In . SVG Version: 6.00 Build 0)  -->
<svg version="1.1" id="Layer_1" xmlns="http://www.w3.org/2000/svg" xmlns:xlink="http://www.w3.org/1999/xlink" x="0px" y="0px"
	 viewBox="0 0 450 63" style="enable-background:new 0 0 450 63;" xml:space="preserve">
<style type="text/css">
	.st0{display:none;fill:#FFFFFF;}
	.st1{fill:#FFFFFF;}
	.st2{font-family:'NotoSansKR-Black-KSCpc-EUC-H';}
	.st3{font-size:52px;}
</style>
<path class="st0" d="M4.7,58.2V11.5H21v15.8h10.4V11.5h16.3v46.7H31.4V42H21v16.2H4.7z"/>
<path class="st0" d="M57,58.2V11.5h31.5v12.8H74v4.3h13.2v12.3H74v4.5h15v12.8C89,58.2,57,58.2,57,58.2z"/>
<path class="st0" d="M96.3,58.2V11.5h16.9v31.6h14.3v15.1C127.5,58.2,96.3,58.2,96.3,58.2z"/>
<path class="st0" d="M133.1,58.2V11.5H150v31.6h14.3v15.1C164.3,58.2,133.1,58.2,133.1,58.2z"/>
<path class="st0" d="M213.2,51.8c-4,4.1-10.5,7.5-19.4,7.5s-15.4-3.4-19.4-7.5c-3.6-3.7-6.5-9.5-6.5-16.9s2.9-13.2,6.5-16.9
	c4-4.1,10.5-7.5,19.4-7.5s15.4,3.4,19.4,7.5c3.6,3.7,6.5,9.5,6.5,16.9S216.9,48.1,213.2,51.8z M187.7,27.9c-1.7,1.8-2.7,4.5-2.7,7
	c0,2.7,1,5.3,2.7,6.9c1.4,1.4,3.5,2.4,6.1,2.4s4.7-1,6.1-2.4c1.5-1.5,2.7-4,2.7-6.9s-1-5.4-2.7-7c-1.3-1.3-3.3-2.4-6.1-2.4
	C190.8,25.5,188.9,26.7,187.7,27.9z"/>
<path class="st0" d="M235.1,65.4h-12.5l7.5-23.1h16L235.1,65.4z"/>
<path class="st0" d="M34.6,96.7c-2-1.4-5.7-3.5-9.5-3.5c-0.9,0-2.3,0.1-3.2,0.8c-0.6,0.5-0.8,1-0.8,1.7c0,1,0.1,1.9,2.7,2.5l5.4,1.2
	c4.1,0.9,6.6,2.6,8,4c2.9,2.9,3.6,6.4,3.6,9.2c0,4-1,7.7-4.2,11c-2.7,2.7-7.7,6-16.5,6c-7.1,0-11.9-2-15.9-3.6l-1.5-0.6l5.1-13.2
	l1.8,1.4c1.8,1.3,5.3,3.4,9.5,3.4c2.3,0,3.3-0.6,3.6-0.8c0.8-0.6,0.9-1.4,0.9-2.1c0-0.4-0.1-1.1-0.6-1.6c-0.6-0.6-1.5-0.8-3.2-1.1
	l-4.1-0.8c-2.7-0.5-5.5-1.3-8.1-4c-2.4-2.4-3.4-5.3-3.4-8.6c0-4.3,1.5-8.1,4.6-11.1c3.6-3.6,8.8-6,16.2-6c3.7,0,8.5,0.6,14.2,4.1
	L34.6,96.7z"/>
<path class="st0" d="M53.3,128.5V96.6L43.8,97V81.8h35.7V97L70,96.6v31.9H53.3z"/>
<path class="st0" d="M85.3,128.5V81.8h21.1c4.9,0,10,0.6,14.3,4.8c2.4,2.4,4.4,6,4.4,11.5c0,4.1-1.3,6.7-2.6,8.3
	c-1.4,1.8-3.7,3.2-6.4,3.7v0.4c0.9,0.5,1.8,1.2,2.5,2.2l10.5,15.8h-19.5l-6.7-13.7c-0.2-0.5-0.4-0.7-0.6-1.5l-0.3,0.1v15H85.3V128.5
	z M101.9,102.6h2c1,0,2.5-0.1,3.6-1c0.6-0.5,1.2-1.4,1.2-2.9c0-1.1-0.3-2.1-0.9-2.8c-0.6-0.6-1.5-1.3-2.9-1.3H102L101.9,102.6
	L101.9,102.6z"/>
<path class="st0" d="M149.6,122.7l-1.3,5.8h-17.9l16.2-46.7h18.8l16.7,46.7h-18l-1.5-5.8H149.6z M156.5,97.4h-0.6
	c-0.1,2-0.4,3.6-0.8,5.3l-2.3,9h6.8l-2.2-9C156.9,100.8,156.7,99.1,156.5,97.4z"/>
<path class="st0" d="M186.7,128.5V81.8h16.2l10.9,17.6c1.8,2.8,2.9,4.6,4.4,8.3h0.5c-0.7-2.9-1.5-7.6-1.5-11.1V81.8h16.2v46.7h-16.2
	l-11.6-18.4c-1-1.7-2.3-4.1-3.2-6.1h-0.5c0.5,2.5,1,6.5,1,8.6v15.9H186.7z"/>
<path class="st0" d="M265.6,101.3h26.3v1c0,5.7-0.5,13.5-6.1,19.5c-4.6,5-12.1,7.6-19.8,7.6c-9.8,0-15.8-3.9-19.3-7.7
	c-4.4-4.8-6-10.4-6-16.6c0-8.5,3.3-13.9,6.4-17.2c3.8-3.9,10.2-7.4,19.6-7.4c5,0,9.4,1,13.7,3.3c4,2.2,6.8,4.8,9,8.6l-15.8,5.9
	c-1-1.5-2.9-3.6-6.4-3.6c-2.5,0-4.5,0.8-6,2.2c-1.9,1.8-3.4,4.8-3.4,8.8c0,3.2,1,6.4,3.1,8.3c1.3,1.3,3.2,2.1,5.5,2.1
	c2.5,0,5.8-0.9,6.9-4h-7.7V101.3z"/>
<path class="st0" d="M299,128.5V81.8h31.5v12.8H316v4.3h13.2v12.3H316v4.5h15v12.8L299,128.5L299,128.5z"/>
<path class="st0" d="M338.2,128.5V81.8h21.1c4.9,0,10,0.6,14.3,4.8c2.4,2.4,4.4,6,4.4,11.5c0,4.1-1.3,6.7-2.6,8.3
	c-1.4,1.8-3.7,3.2-6.4,3.7v0.4c0.9,0.5,1.8,1.2,2.5,2.2l10.5,15.8h-19.5l-6.7-13.7c-0.2-0.5-0.4-0.7-0.6-1.5l-0.3,0.1v15h-16.7
	V128.5z M354.8,102.6h2c1,0,2.5-0.1,3.6-1c0.6-0.5,1.2-1.4,1.2-2.9c0-1.1-0.3-2.1-0.9-2.8c-0.6-0.6-1.5-1.3-2.9-1.3h-2.9v8H354.8z"
	/>
<path class="st0" d="M402.8,126.7c-1.8,1.8-4.6,2.7-7.1,2.7c-2.4,0-5.2-0.8-7-2.7c-1.4-1.4-2.2-3.4-2.2-5.2c0-1.7,0.8-3.7,2.2-5.1
	c1.8-1.8,4.6-2.7,7-2.7c2.5,0,5.3,0.8,7.1,2.7c1.4,1.4,2.2,3.4,2.2,5.1C404.9,123.3,404.2,125.3,402.8,126.7z"/>
<text transform="matrix(1 0 0 1 0 51.89)" class="st1 st2 st3">CONTACT US</text>
</svg>
