<?xml version="1.0" encoding="utf-8"?>
<!-- Generator: Adobe Illustrator 21.1.0, SVG Export Plug-In . SVG Version: 6.00 Build 0)  -->
<svg version="1.1" id="Layer_1" xmlns="http://www.w3.org/2000/svg" xmlns:xlink="http://www.w3.org/1999/xlink" x="0px" y="0px"
	 viewBox="0 0 12 30" style="enable-background:new 0 0 12 30;" xml:space="preserve">
<style type="text/css">
	.st0{fill:#FFFFFF;}
</style>
<g>
	<path class="st0" d="M10.9,23.1c-0.4-0.4-1-0.4-1.4,0L7,25.6V2c0-0.5-0.5-1-1-1S5,1.5,5,2v23.6l-2.5-2.5c-0.4-0.4-1-0.4-1.4,0
		s-0.4,1,0,1.4l4.2,4.2c0,0,0,0,0,0C5.5,28.9,5.7,29,6,29c0.3,0,0.5-0.1,0.7-0.3c0,0,0,0,0,0l4.2-4.2C11.3,24.1,11.3,23.4,10.9,23.1
		z"/>
</g>
</svg>
