<?xml version="1.0" encoding="utf-8"?>
<!-- Generator: Adobe Illustrator 21.1.0, SVG Export Plug-In . SVG Version: 6.00 Build 0)  -->
<svg version="1.1" id="Layer_1" xmlns="http://www.w3.org/2000/svg" xmlns:xlink="http://www.w3.org/1999/xlink" x="0px" y="0px"
	 viewBox="0 0 22 55" style="enable-background:new 0 0 22 55;" xml:space="preserve">
<style type="text/css">
	.st0{fill:#FFFFFF;}
	.st1{fill:none;stroke:#FFFFFF;stroke-width:1.4142;stroke-linecap:round;stroke-linejoin:round;stroke-miterlimit:10;}
</style>
<g>
	<path class="st0" d="M11,1.7c4,0,7.3,3.3,7.3,7.3v10c0,4-3.3,7.3-7.3,7.3c-4,0-7.3-3.3-7.3-7.3V9C3.7,5,7,1.7,11,1.7 M11,0L11,0
		c-5,0-9,4.1-9,9v10c0,4.9,4.1,9,9,9h0c4.9,0,9-4,9-9V9C20,4.1,15.9,0,11,0L11,0z"/>
</g>
<g>
	<path class="st0" d="M11,6.8L11,6.8c-0.6,0-1,0.4-1,1v4.9c0,0.5,0.4,1,1,1h0c0.5,0,1-0.4,1-1V7.8C12,7.3,11.6,6.8,11,6.8z"/>
</g>
<polyline class="st1" points="14,35 11,38 8,35 "/>
<polyline class="st1" points="14,42 11,45 8,42 "/>
</svg>
